<?xml version="1.0" standalone="no"?>
<!DOCTYPE svg PUBLIC "-//W3C//DTD SVG 20010904//EN"
 "http://www.w3.org/TR/2001/REC-SVG-20010904/DTD/svg10.dtd">
<svg version="1.0" xmlns="http://www.w3.org/2000/svg"
 width="300.000000pt" height="300.000000pt" viewBox="0 0 300.000000 300.000000"
 preserveAspectRatio="xMidYMid meet">
<metadata>
Created by potrace 1.10, written by Peter Selinger 2001-2011
</metadata>
<g transform="translate(0.000000,300.000000) scale(0.100000,-0.100000)"
fill="#000000" stroke="none">
<path d="M1393 2370 c-76 -16 -136 -56 -167 -109 -6 -10 -24 -36 -41 -57 -29
-36 -30 -41 -29 -138 0 -56 3 -112 7 -126 5 -20 2 -28 -16 -35 -48 -21 -25
-191 34 -246 37 -34 89 -161 89 -216 0 -23 4 -43 9 -45 5 -1 35 -27 66 -56 54
-50 61 -53 94 -47 60 11 157 61 204 104 24 23 46 41 49 41 5 0 2 -36 -8 -98
-3 -22 -33 -66 -90 -135 -47 -56 -89 -103 -94 -105 -13 -5 -239 245 -246 272
l-6 25 -56 -45 c-30 -25 -58 -41 -62 -37 -8 9 -94 219 -171 415 -51 131 -55
138 -82 138 -17 0 -30 -6 -34 -17 -3 -10 -16 -43 -29 -73 -13 -30 -60 -145
-104 -255 -45 -110 -96 -235 -113 -278 -37 -92 -74 -137 -111 -137 -21 0 -26
-5 -26 -25 l0 -25 140 0 140 0 0 25 c0 20 -5 25 -25 25 -31 0 -65 33 -64 63 0
12 10 49 22 82 l22 60 136 3 135 3 27 -70 c15 -37 27 -78 27 -89 0 -25 -35
-52 -67 -52 -18 0 -23 -6 -23 -25 l0 -25 191 0 192 0 93 -86 94 -86 95 87 94
87 323 -4 323 -3 58 28 c254 125 304 478 95 677 -88 86 -197 119 -315 99 -125
-22 -251 -136 -289 -262 -25 -80 -25 -225 -1 -280 21 -48 39 -41 25 10 -31
121 -14 255 47 347 36 57 63 83 118 114 51 29 65 28 30 -2 -37 -31 -81 -121
-94 -194 -15 -78 -6 -277 14 -324 9 -21 14 -38 11 -38 -8 0 53 -85 79 -111 44
-41 5 -54 -61 -20 -42 21 -116 97 -134 136 -6 14 -16 25 -22 25 -15 0 -134
107 -148 133 -22 41 -26 85 -11 106 8 12 23 46 33 77 11 31 31 68 46 82 67 68
88 252 28 252 -13 0 -15 8 -9 43 17 113 15 176 -10 244 -28 79 -73 123 -154
154 -63 23 -210 34 -278 19z m245 -48 c75 -23 140 -81 157 -142 12 -45 15 -72
7 -86 -8 -15 -10 -14 -17 7 -11 38 -55 71 -85 65 -139 -32 -182 -30 -320 10
l-84 24 -38 -25 c-21 -14 -38 -30 -38 -35 0 -6 -4 -10 -10 -10 -21 0 -8 35 36
94 56 74 84 93 166 111 71 16 146 11 226 -13z m-247 -188 c88 -32 218 -37 285
-11 23 8 45 12 51 9 14 -10 41 -97 49 -161 l7 -53 -34 8 c-60 16 -186 10 -207
-9 -23 -21 -56 -22 -87 -1 -33 22 -123 29 -184 14 -29 -7 -54 -10 -57 -7 -3 2
0 45 7 93 11 74 17 94 40 117 34 33 38 33 130 1z m45 -245 c20 -17 10 -75 -19
-106 -16 -18 -31 -23 -71 -23 -28 0 -56 4 -63 8 -33 21 -45 127 -15 136 31 9
151 -1 168 -15z m299 8 c25 -19 15 -94 -15 -119 -31 -25 -114 -24 -139 1 -25
25 -37 86 -21 106 21 26 144 34 175 12z m-511 -66 c3 -22 17 -52 30 -67 19
-23 33 -28 84 -32 60 -4 63 -3 97 31 25 25 35 44 35 65 0 35 12 46 40 37 13
-4 20 -15 20 -32 0 -34 28 -79 57 -92 13 -6 47 -11 74 -11 64 0 103 34 114 99
7 40 8 42 38 39 31 -3 32 -4 30 -49 -1 -58 -34 -135 -61 -143 -13 -5 -24 -22
-31 -53 -16 -62 -32 -91 -76 -136 -54 -55 -103 -77 -175 -77 -112 0 -200 70
-246 195 -10 28 -32 64 -49 81 -34 34 -55 91 -55 148 0 34 2 36 34 36 31 0 34
-3 40 -39z m-302 -108 c20 -49 49 -119 63 -158 15 -38 35 -88 45 -110 10 -22
30 -65 43 -97 33 -74 55 -86 106 -57 21 11 44 19 52 18 8 -2 57 -51 110 -109
52 -58 112 -114 132 -125 l36 -20 51 50 c65 64 160 187 160 208 0 31 17 26 60
-18 24 -25 48 -45 53 -45 10 0 32 -18 55 -44 69 -79 82 -95 82 -105 0 -8 -41
-11 -134 -11 -74 0 -145 -4 -158 -9 -13 -5 -54 -38 -93 -75 -38 -36 -76 -66
-83 -66 -8 0 -46 29 -86 64 -39 35 -81 68 -93 75 -13 6 -74 11 -152 11 -126 0
-131 1 -131 21 0 11 4 18 8 15 14 -9 4 58 -18 120 -12 32 -33 69 -47 81 -17
14 -24 27 -19 38 6 17 -11 102 -24 120 -4 6 -11 21 -15 35 -18 59 -67 149 -85
155 -15 5 -17 11 -10 33 18 58 35 92 45 92 6 0 27 -39 47 -87z m1394 67 c89
-43 133 -153 134 -335 2 -223 -74 -350 -210 -350 -145 0 -216 132 -208 385 3
110 7 132 31 185 30 63 84 121 120 128 51 10 93 6 133 -13z m125 -24 c24 -19
51 -44 59 -56 8 -12 23 -31 33 -43 47 -55 69 -251 38 -342 -20 -57 -74 -137
-113 -167 -45 -34 -106 -66 -92 -47 6 8 24 32 40 54 57 75 86 215 73 349 -13
128 -31 180 -86 254 -32 43 -9 43 48 -2z m-1505 -383 c-2 -2 -51 -2 -108 -1
l-105 3 48 125 c26 69 50 134 54 145 4 14 22 -24 60 -124 30 -79 53 -146 51
-148z m449 15 c16 -9 49 -20 73 -24 36 -5 41 -9 30 -19 -7 -8 -27 -16 -45 -18
-27 -4 -40 1 -78 35 -66 58 -56 72 20 26z m-760 -268 l16 -30 -36 0 c-19 0
-35 2 -35 5 0 7 31 55 36 55 2 0 10 -13 19 -30z"/>
</g>
</svg>
